<svg id="Capa_1" enable-background="new 0 0 512 512" height="512" viewBox="0 0 512 512" width="512" xmlns="http://www.w3.org/2000/svg"><g><g><path d="m376.92 433.66c8.96 18.7 15.32 42.1 15.32 70.84h-272.48c0-28.74 6.36-52.14 15.32-70.84z" fill="#ffb78c"/><path d="m459.641 243.767c1.473-9.917 2.246-20.06 2.246-30.38 0-113.527-92.361-205.887-205.887-205.887s-205.887 92.36-205.887 205.887c0 10.321.773 20.463 2.246 30.38z" fill="#c6ade3"/><path d="m276 8.474c-6.583-.638-13.253-.974-20-.974-113.526 0-205.887 92.36-205.887 205.887 0 10.32.773 20.463 2.246 30.38h40c-1.473-9.917-2.246-20.06-2.246-30.38 0-106.779 81.711-194.823 185.887-204.913z" fill="#b08bd7"/><path d="m447.053 262.103s10.622 35.971-10.477 57.396c-13.075 13.277-22.303 29.988-25.256 48.387-3.351 20.882-16.546 44.49-57.59 50.179h-195.46c-41.044-5.689-54.238-29.297-57.59-50.179-2.953-18.399-12.181-35.11-25.256-48.387-21.099-21.425-10.477-57.396-10.477-57.396z" fill="#c6ade3"/><path d="m140.68 367.886c-2.953-18.399-12.181-35.11-25.256-48.387-21.099-21.425-10.477-57.396-10.477-57.396h-40s-10.622 35.971 10.477 57.396c13.075 13.277 22.303 29.988 25.256 48.387 3.351 20.882 16.546 44.49 57.59 50.179h40c-41.044-5.689-54.238-29.297-57.59-50.179z" fill="#b08bd7"/><circle cx="425.431" cy="243.767" fill="#ffcabd" r="42.126"/><path d="m350.54 395.51c-16.1-16.84-30.72-24.14-30.72-24.14h-127.64s-14.62 7.3-30.72 24.14l13.66 28.463 80.88 25.865 77.1-25.864z" fill="#ffb78c"/><path d="m181.714 406.784c3.236-4.153 6.52-7.906 9.746-11.273 16.099-16.839 30.717-24.139 30.72-24.14h-30s-12.007 5.996-26.242 19.653c-.982.942-1.974 1.92-2.974 2.936-.5.507-1.002 1.024-1.505 1.551z" fill="#ff995d"/><path d="m426.443 213.268c-.008-10.659-2.955-21.149-8.524-30.239-12.603-20.572-43.526-50.901-116.405-51.368-41.811-.268-75.394-12.104-100.985-26.711-32.942-18.802-75.078-7.503-93.536 25.632-14.184 25.463-22.03 54.94-21.401 86.301 1.868 93.199 79.162 167.988 172.374 166.935 93.228-1.054 168.478-76.955 168.478-170.432-.001-.039-.001-.079-.001-.118z" fill="#ffdcce"/><path d="m115.592 216.884c-.628-31.36 7.217-60.837 21.401-86.301 9.783-17.562 26.217-28.986 44.408-33.05-28.672-6.421-59.383 6.079-74.408 33.05-11.863 21.297-19.27 45.407-21.016 71.072-22.992.318-41.534 19.044-41.534 42.112 0 23.266 18.861 42.126 42.126 42.126 5.496 0 10.066-1.064 13.857-2.979 27.006 60.044 87.817 101.692 157.539 100.904 4.411-.05 8.782-.269 13.106-.648-85.48-7.51-153.726-78.781-155.479-166.286z" fill="#ffcabd"/><path d="m361.356 176.046c-17.077-1.752-36.545.839-55.836 8.352-20.902 8.14-38.035 20.68-49.52 34.862-11.484-14.182-28.618-26.722-49.52-34.862-19.292-7.513-38.759-10.104-55.836-8.352-24.169 2.479-35.408 31.339-19.283 49.511 11.394 12.84 27.486 24.098 46.778 31.612 23.22 9.043 46.693 4.119 65.947-2.531 7.727-2.669 16.1-2.669 23.827 0 19.255 6.65 42.727 11.574 65.947 2.531 19.292-7.513 35.383-18.771 46.778-31.612 16.126-18.172 4.887-47.031-19.282-49.511z" fill="#ffb78c"/><path d="m149.76 504.5c0-28.74 6.36-52.14 15.32-70.84h-30c-6.16 12.856-11.091 27.934-13.571 45.441-1.127 7.958-1.749 16.417-1.749 25.398h30z" fill="#ff995d"/><g><path d="m376.92 433.66-120.92 45.51-120.92-45.51c7.68-16.04 17.26-28.63 26.38-38.15l94.54 35.58 94.54-35.58c9.12 9.52 18.7 22.11 26.38 38.15z" fill="#f9f097"/></g><path d="m165.08 433.66c5.59-11.676 12.188-21.515 18.882-29.682l-22.502-8.468c-5.7 5.95-11.58 13.099-17.063 21.541-3.29 5.064-6.437 10.594-9.317 16.609l25.784 9.704c1.325-3.362 2.731-6.604 4.216-9.704z" fill="#fccb88"/><path d="m445.219 85.967-8.606-12.22c-2.108-2.993-2.608-6.832-1.338-10.266l5.187-14.018c3.2-8.646-4.904-17.209-13.713-14.489l-14.281 4.409c-3.498 1.08-7.304.369-10.177-1.9l-11.728-9.265c-7.234-5.715-17.882-.654-18.018 8.565l-.22 14.945c-.054 3.661-1.906 7.06-4.952 9.091l-12.436 8.291c-7.671 5.114-6.148 16.805 2.578 19.782l14.146 4.827c3.465 1.182 6.126 3.994 7.116 7.519l4.043 14.39c2.494 8.876 14.083 11.04 19.611 3.661l8.962-11.961c2.195-2.93 5.692-4.592 9.35-4.445l14.935.602c9.211.373 14.85-9.98 9.541-17.518z" fill="#f9f097"/></g><g><path d="m256 207.95c-25.67-26.681-67.983-43.278-106.121-39.365-30.226 3.101-44.295 39.222-24.127 61.95 12.668 14.275 29.842 25.902 49.666 33.623 23.409 9.117 47.366 5.773 71.117-2.43 6.104-2.108 12.826-2.108 18.931 0 17.6 6.079 44.121 12.944 71.117 2.43 19.824-7.721 36.998-19.347 49.666-33.623 20.166-22.726 6.1-58.849-24.127-61.95-38.165-3.914-80.468 12.701-106.122 39.365zm104.591-24.443c18.096 1.857 26.543 23.432 14.438 37.072-11.096 12.504-26.273 22.74-43.89 29.601-22.394 8.722-45.412 2.676-60.777-2.631-9.261-3.199-19.463-3.199-28.724 0-15.365 5.307-38.381 11.354-60.777 2.631-17.617-6.861-32.794-17.097-43.89-29.601-12.077-13.609-3.698-35.212 14.438-37.072 36.021-3.695 77.179 13.82 98.762 40.474 3.003 3.708 8.661 3.7 11.657 0 21.554-26.617 62.691-44.174 98.763-40.474z"/><path d="m184.058 206.097c-4.142 0-7.5 3.358-7.5 7.5v13.824c0 4.142 3.358 7.5 7.5 7.5s7.5-3.358 7.5-7.5v-13.824c0-4.142-3.358-7.5-7.5-7.5z"/><path d="m327.942 234.921c4.142 0 7.5-3.358 7.5-7.5v-13.824c0-4.142-3.358-7.5-7.5-7.5s-7.5 3.358-7.5 7.5v13.824c0 4.142 3.358 7.5 7.5 7.5z"/><path d="m279.895 275.026c-3.123-2.721-7.86-2.396-10.582.727-7.051 8.091-19.582 8.083-26.625 0-2.722-3.123-7.459-3.448-10.582-.727-3.123 2.722-3.448 7.459-.727 10.582 13.031 14.952 36.227 14.935 49.243 0 2.72-3.123 2.395-7.86-.727-10.582z"/><path d="m54.784 281.841c-.159 13.173 2.669 30.098 15.297 42.92 12.57 12.764 20.59 28.088 23.194 44.313 2.779 17.316 12.241 39.323 40.753 50.531-15.025 25.916-21.768 54.816-21.768 84.894 0 4.142 3.358 7.5 7.5 7.5h272.48c4.142 0 7.5-3.358 7.5-7.5 0-26.918-5.402-51.841-16.054-74.076 0-.001-.001-.002-.001-.003-1.766-3.688-3.672-7.295-5.712-10.815 28.513-11.208 37.974-33.215 40.753-50.531 2.604-16.227 10.625-31.55 23.194-44.313 12.627-12.822 15.457-29.747 15.297-42.92 18.262-15.272 22.923-40.885 12.043-61.317 1.303-37.931-7.581-76.292-26.726-110.662 11.25-4.103 16.025-17.98 8.817-28.213l-8.607-12.22c-.687-.975-.85-2.225-.436-3.344l5.188-14.018c5.356-14.473-8.222-28.809-22.959-24.258l-14.282 4.409c-1.14.352-2.379.121-3.315-.619l-11.729-9.266c-10.175-8.038-24.918-3.426-29.088 8.35-33.214-20.109-71.027-30.683-110.123-30.683-45.2 0-88.43 14.027-125.016 40.564-3.353 2.432-4.1 7.122-1.668 10.475s7.122 4.1 10.475 1.668c34.009-24.668 74.194-37.707 116.209-37.707 38.925 0 76.484 11.272 108.884 32.638-.001.1-.062 4.244-.059 3.98-.01.708-.248 1.373-.63 1.946-.607.908.083.305-13.419 9.307-12.827 8.551-10.301 28.119 4.316 33.121 19.494 6.653 12.053 4.113 14.145 4.827 1.198.409 2.042 1.465 2.318 2.449l4.043 14.39c4.178 14.872 23.6 18.452 32.829 6.135 10.539-14.064 8.747-11.698 9.16-12.168.718-.817 1.753-1.29 2.852-1.246.175.007 5.452.22 5.168.208 17.096 28.101 26.864 59.905 28.524 92.733-6.73-4.79-14.591-7.84-22.952-8.841-1.268-4.252-3.111-8.702-5.434-12.896-20.379-36.775-63.09-53.213-105.862-56.647-23.099-1.851-64.583 2.641-115.638-26.499-37.202-21.233-83.773-7.69-103.851 28.579-11.27 20.251-18.829 43.211-21.35 67.697-7.722 1.163-14.946 4.099-21.18 8.526 2.504-50.004 23.491-96.496 59.731-131.832 2.966-2.892 3.026-7.64.134-10.606-2.893-2.966-7.641-3.025-10.606-.134-44.669 43.554-66.401 101.429-64.384 159.937-10.943 20.527-6.107 46.059 12.045 61.237zm23.31-71.633c-.01.534-.051 4.315-.001 6.826.44 21.843 4.827 42.421 12.207 61.151-20.586 2.209-38.357-13.977-38.357-34.419 0-16.075 11.168-29.745 26.151-33.558zm64.311 196.498c-19.604-6.761-31.14-20.199-34.319-40.008-3.101-19.322-12.547-37.463-27.317-52.462-6.641-6.743-9.513-15.433-10.526-23.595 8.352 2.919 17.71 3.534 26.376 1.728 17.006 34.032 45.066 62.583 79.861 80.081-12.842 9.172-25.016 21.703-34.075 34.256zm176.983-26.968c5.96 3.576 12.088 8.256 17.393 12.936l-80.781 30.402-80.78-30.401c5.46-4.805 11.234-9.202 17.531-13.019 41.986 16.084 87.423 15.006 126.637.082zm-191.974 117.262c.796-19.308 4.691-37.358 11.617-53.839 22.463 8.454 93.127 35.05 114.327 43.028 1.781.671 3.672.608 5.284 0 53.01-20.175 51.726-18.947 53.729-20.852 5.514-5.243.572-14.441-6.832-12.745-.69.157-49.439 18.525-49.54 18.563l-110.398-41.55c5.019-9.076 10.893-17.346 17.96-25.292l89.796 33.795c3.683 1.387-.835 2.261 95.08-33.795 6.764 7.577 12.827 16.006 17.96 25.292l-34.055 12.817c-3.622 1.363-5.587 5.245-4.611 8.93 1.139 4.299 5.733 6.675 9.896 5.108l35.341-13.301c6.925 16.48 10.821 34.533 11.618 53.839h-257.172zm314.344-206.359c-1.014 8.163-3.886 16.852-10.526 23.595-14.77 14.999-24.216 33.139-27.317 52.462-3.179 19.809-14.715 33.247-34.319 40.008-9.727-13.481-21.617-25.237-33.917-34.131 33.243-16.676 61.956-44.132 79.848-80.178 8.834 1.794 18.046 1.105 26.231-1.756zm-19.954-12.445c8.01-20.506 12.139-42.506 12.139-64.81-.002-.101-.004-1.755-.075-3.175 15.205 3.862 26.189 17.497 26.189 33.555 0 20.424-17.723 36.573-38.253 34.43zm-38.089-244.889c2.151 0 2.327 1.265 13.927 10.063 4.811 3.8 11.178 4.989 17.038 3.181l14.282-4.409c2.875-.887 5.512 1.898 4.467 4.72l-5.188 14.018c-2.128 5.75-1.291 12.175 2.24 17.187l8.606 12.22c1.735 2.464-.108 5.825-3.108 5.708-1.576-.064-12.81-.517-14.936-.603-6.317-.254-12.13 2.727-15.653 7.442l-8.962 11.961c-1.829 2.441-5.586 1.665-6.388-1.193l-4.042-14.39c-1.617-5.757-5.996-10.568-11.915-12.588-.352-.12 2.142.731-14.146-4.827-2.401-.819-3.022-3.531-1.937-5.31.727-1.193 1.448-1.231 7.316-5.28 5.9-4.135 12.949-7.059 14.335-17.093.213-1.542.323-11.07.393-17.219.033-2.217 1.872-3.588 3.671-3.588zm27.847 153.703c7.947 13.021 8.163 24.955 6.711 41.178-4.585 51.273-33.278 97.111-76.924 124.06-117.116 71.817-266.366-25.455-246.547-162.635 2.932-19.953 9.486-38.791 18.743-55.38 16.241-29.157 53.485-39.755 83.266-22.769 31.575 18.023 66.925 27.455 104.655 27.697 42.219.269 87.918 11.862 110.096 47.849z"/></g></g></svg>